{"title":"The Ladykillers (1955)","uid":5482574,"size":4695493423,"categoryP":"video","categoryS":"hd___movies","magnet":"?xt=urn:btih:acd06ff069b457b1029e212f78fdde0f5c60d941&amp;dn=The+Ladykillers+%281955%29&amp;tr=udp%3A%2F%2Ftracker.openbittorrent.com%3A80&amp;tr=udp%3A%2F%2Fopen.demonii.com%3A1337&amp;tr=udp%3A%2F%2Ftracker.coppersurfer.tk%3A6969&amp;tr=udp%3A%2F%2Fexodus.desync.com%3A6969","seeders":0,"leechers":1,"uploader":"mfccorrea","files":7,"time":1270518882,"description":"Music professor Alec Guinness rents a London flat from sweet old lady Katie Johnson. He tells her that, from time to time, several other musicians will visit in order to rehearse. In truth, Guinness  can't play a note, nor can his visitors: he's a criminal mastermind, holding court over a gang of thieves, including the likes of punkish Peter Sellers, homicidal Herbert Lom and punchdrunk Danny Green. The gang uses Guinness' flat as headquarters as they conceive a daring 60,000 pound robbery. After pulling off the job, the gang stuffs the loot in a railway station locker. To avoid detection, Guinness  convinces the ever-trusting Johnson  to pick up the money. Through a series of comic complications, Johnson  returns home with a police escort, with neither the woman nor the bobbies suspecting that she's carrying a fortune in her suitcase. Mistakenly believing that Johnson  has ratted on them, the gang reluctantly plans to eliminate her. The Ladykillers won an Oscar nomination for William Rose's screenplay, and a BFA award for veteran character actress Johnson. \n\n   General\n      Complete name : The.Ladykillers.1955.720p.BluRay.x264-CiNEFiLE.mkv\n      Format : Matroska\n      File size : 4.37 GiB\n      Duration : 1h 30mn\n      Overall bit rate : 6 903 Kbps\n      Encoded date : UTC 2010-02-16 18:54:11\n      Writing application : mkvmerge v2.9.8 ('C'est le bon') built on Aug 13 2009 12:49:06\n      Writing library : libebml v0.7.7 + libmatroska v0.8.1\n   Video #1\n      ID : 1\n      Format : AVC\n      Format/Info : Advanced Video Codec\n      Format profile : &lt;a class=&quot;__cf_email__&quot; href=&quot;/cdn-cgi/l/email-protection&quot; data-cfemail=&quot;bdf5d4dad5fdf189938c&quot;&gt;[email&amp;#160;protected]&lt;/a&gt;&lt;script cf-hash='f9e31' type=&quot;text/javascript&quot;&gt;\n/* &lt;![CDATA[ */!function(){try{var t=&quot;currentScript&quot;in document?document.currentScript:function(){for(var t=document.getElementsByTagName(&quot;script&quot;),e=t.length;e--;)if(t[e].getAttribute(&quot;cf-hash&quot;))return t[e]}();if(t&amp;&amp;t.previousSibling){var e,r,n,i,c=t.previousSibling,a=c.getAttribute(&quot;data-cfemail&quot;);if(a){for(e=&quot;&quot;,r=parseInt(a.substr(0,2),16),n=2;a.length-n;n+=2)i=parseInt(a.substr(n,2),16)^r,e+=String.fromCharCode(i);e=document.createTextNode(e),c.parentNode.replaceChild(e,c)}}}catch(u){}}();/* ]]&gt; */&lt;/script&gt;\n      Format settings, CABAC : Yes\n      Format settings, ReFrames : 4 frames\n      Muxing mode : Container profile=&lt;a class=&quot;__cf_email__&quot; href=&quot;/cdn-cgi/l/email-protection&quot; data-cfemail=&quot;10457e7b7e7f677e50243e21&quot;&gt;[email&amp;#160;protected]&lt;/a&gt;&lt;script cf-hash='f9e31' type=&quot;text/javascript&quot;&gt;\n/* &lt;![CDATA[ */!function(){try{var t=&quot;currentScript&quot;in document?document.currentScript:function(){for(var t=document.getElementsByTagName(&quot;script&quot;),e=t.length;e--;)if(t[e].getAttribute(&quot;cf-hash&quot;))return t[e]}();if(t&amp;&amp;t.previousSibling){var e,r,n,i,c=t.previousSibling,a=c.getAttribute(&quot;data-cfemail&quot;);if(a){for(e=&quot;&quot;,r=parseInt(a.substr(0,2),16),n=2;a.length-n;n+=2)i=parseInt(a.substr(n,2),16)^r,e+=String.fromCharCode(i);e=document.createTextNode(e),c.parentNode.replaceChild(e,c)}}}catch(u){}}();/* ]]&gt; */&lt;/script&gt;\n      Codec ID : V_MPEG4/ISO/AVC\n      Duration : 1h 30mn\n      Bit rate : 5 255 Kbps\n      Nominal bit rate : 5 391 Kbps\n      Width : 992 pixels\n      Height : 720 pixels\n      Display aspect ratio : 1.378\n      Frame rate : 24.000 fps\n      Resolution : 24 bits\n      Colorimetry : 4:2:0\n      Scan type : Progressive\n      Bits/(Pixel*Frame) : 0.307\n      Stream size : 3.33 GiB (76%)\n      Writing library : x264 core 83 r1400 20fa784      \n   Audio #2\n      ID : 2\n      Format : DTS\n      Format/Info : Digital Theater Systems\n      Codec ID : A_DTS\n      Duration : 1h 30mn\n      Bit rate mode : Constant\n      Bit rate : 1 510 Kbps\n      Channel(s) : 2 channels\n      Channel positions : L R\n      Sampling rate : 48.0 KHz\n      Resolution : 24 bits\n      Stream size : 979 MiB (22%)\n      Language : English\n &lt;a href=&quot;\nhttp://www.imdb.com/title/tt0048281/&quot; rel=&quot;nofollow&quot; target=&quot;_NEW&quot;&gt;\nhttp://www.imdb.com/title/tt0048281/&lt;/a&gt;\n\nEnglish audio; English (HI), French, German, Italian, Spanish and Portuguese subtitles (srt)","torrent":{"xt":"urn:btih:acd06ff069b457b1029e212f78fdde0f5c60d941","amp;dn":"The+Ladykillers+%281955%29","amp;tr":["udp%3A%2F%2Ftracker.openbittorrent.com%3A80","udp%3A%2F%2Fopen.demonii.com%3A1337","udp%3A%2F%2Ftracker.coppersurfer.tk%3A6969","udp%3A%2F%2Fexodus.desync.com%3A6969"],"infoHash":"acd06ff069b457b1029e212f78fdde0f5c60d941","infoHashBuffer":{"type":"Buffer","data":[172,208,111,240,105,180,87,177,2,158,33,47,120,253,222,15,92,96,217,65]},"announce":[],"urlList":[]}}